<?xml version="1.0" standalone="no"?>
<!DOCTYPE svg PUBLIC "-//W3C//DTD SVG 20010904//EN"
 "http://www.w3.org/TR/2001/REC-SVG-20010904/DTD/svg10.dtd">
<svg version="1.0" xmlns="http://www.w3.org/2000/svg"
 width="116.000000pt" height="116.000000pt" viewBox="0 0 116.000000 116.000000"
 preserveAspectRatio="xMidYMid meet">
<metadata>
Created by potrace 1.11, written by Peter Selinger 2001-2013
</metadata>
<g transform="translate(0.000000,116.000000) scale(0.100000,-0.100000)"
fill="#000000" stroke="none">
<path d="M547 1140 c-14 -11 -27 -20 -30 -20 -3 0 -45 -23 -94 -51 -48 -28
-101 -59 -118 -69 -16 -10 -73 -42 -125 -73 l-95 -55 0 -292 0 -292 180 -105
c99 -58 212 -122 250 -143 l70 -38 70 42 c39 24 150 89 248 145 l177 103 0
288 0 288 -197 115 c-109 63 -223 129 -254 146 l-56 31 -26 -20z"/>
</g>
</svg>
